<svg xmlns="http://www.w3.org/2000/svg" viewBox="0 0 126.25 146.45"><defs><style>.cls-1{fill:#b24763;fill-rule:evenodd;}</style></defs><title>Ativo 1</title><g id="Camada_2" data-name="Camada 2"><g id="Camada_1-2" data-name="Camada 1"><path class="cls-1" d="M81.74,2.81C115,13.2,134,48.75,123.19,81.89c-15.46,47.2-55.27,57.83-87.72,64.56l7.34-23.53A63.14,63.14,0,0,1,81.74,2.81ZM93.49,35.44h0A37.74,37.74,0,0,0,65.78,24a36.61,36.61,0,0,0-7.75.8,36.14,36.14,0,0,0-7.32,2.43,45.63,45.63,0,0,0-6.82,3.83A43.41,43.41,0,0,0,38,36a40.83,40.83,0,0,0-4.91,5.84,41.65,41.65,0,0,0-3.76,6.75,36.26,36.26,0,0,0-3.16,14.93,37.6,37.6,0,0,0,.79,7.77,36.9,36.9,0,0,0,2.37,7.33A43.36,43.36,0,0,0,33,85.38a41.2,41.2,0,0,0,10.7,10.69,42.37,42.37,0,0,0,6.75,3.75,35.8,35.8,0,0,0,7.37,2.37h0a38.85,38.85,0,0,0,7.9.79,42.19,42.19,0,0,0,8-.74,34.4,34.4,0,0,0,7.14-2.17,38.1,38.1,0,0,0,6.53-3.6,42.91,42.91,0,0,0,6-5,5.77,5.77,0,0,0,.71-1,6.62,6.62,0,0,0,.58-1.27,7.32,7.32,0,0,0,.34-1.38,7.58,7.58,0,0,0,.08-1.43A7.91,7.91,0,0,0,95,85a7.71,7.71,0,0,0-.48-1.32,5.76,5.76,0,0,0-.67-1.15,6.22,6.22,0,0,0-.89-1l-.15-.14-.15-.16a6.71,6.71,0,0,0-2.35-1.74,8.37,8.37,0,0,0-6.07,0,6.65,6.65,0,0,0-2.36,1.74l-.13.15-.15.14a22.1,22.1,0,0,1-7.25,4.37,24.9,24.9,0,0,1-8.55,1.45h0A21.52,21.52,0,0,1,61.1,87a20,20,0,0,1-4.59-1.43,26.31,26.31,0,0,1-4-2.23A26.59,26.59,0,0,1,49,80.48a24.49,24.49,0,0,1-3-3.55,24.9,24.9,0,0,1-2.28-4.1,22.51,22.51,0,0,1-1.44-4.55,23,23,0,0,1-.5-4.76,22.12,22.12,0,0,1,2-9.09A25.08,25.08,0,0,1,48.85,47h0a26,26,0,0,1,3.51-3,27.21,27.21,0,0,1,4-2.3,22.18,22.18,0,0,1,9.38-2.06,24,24,0,0,1,8.51,1.51,23.1,23.1,0,0,1,7.29,4.5l.2.21a6.32,6.32,0,0,0,2.3,1.58,7.46,7.46,0,0,0,3,.46,10.13,10.13,0,0,0,3.31-.64,7.45,7.45,0,0,0,2.44-1.55,7.14,7.14,0,0,0,1.62-2.23,8,8,0,0,0,.67-2.89,7.45,7.45,0,0,0-.36-2.89,7,7,0,0,0-1.3-2.25Z"/></g></g></svg>