<?xml version="1.0" encoding="utf-8"?>
<!-- Generator: Adobe Illustrator 23.0.2, SVG Export Plug-In . SVG Version: 6.00 Build 0)  -->
<svg version="1.1" id="Camada_1" xmlns="http://www.w3.org/2000/svg" xmlns:xlink="http://www.w3.org/1999/xlink" x="0px" y="0px"
	 viewBox="0 0 218 131.26" style="enable-background:new 0 0 218 131.26;" xml:space="preserve">
<style type="text/css">
	.st0{fill-rule:evenodd;clip-rule:evenodd;fill:#B24763;}
	.st1{fill-rule:evenodd;clip-rule:evenodd;fill:#C0C0C0;}
</style>
<g transform="translate(929 57.2)">
	<path class="st0" d="M-838.87-23.91c16.28,5.08,25.58,22.47,20.27,38.67c-7.56,23.08-27.03,28.28-42.9,31.57l3.59-11.51
		c-16.14-5.49-24.78-23.03-19.28-39.18C-871.81-20.16-854.83-28.82-838.87-23.91L-838.87-23.91z M-833.12-7.95L-833.12-7.95
		c-3.55-3.65-8.46-5.67-13.55-5.58c-1.27,0-2.54,0.13-3.79,0.39c-1.23,0.27-2.43,0.66-3.58,1.19c-1.16,0.53-2.28,1.15-3.34,1.87
		c-1.04,0.71-2.01,1.51-2.9,2.39c-0.89,0.87-1.69,1.83-2.4,2.86c-0.71,1.04-1.33,2.15-1.84,3.3c-1.03,2.3-1.56,4.78-1.55,7.3
		c0,1.28,0.12,2.55,0.38,3.8c0.26,1.23,0.65,2.44,1.16,3.59c0.51,1.16,1.12,2.26,1.83,3.31c1.41,2.05,3.18,3.82,5.23,5.23
		c1.04,0.71,2.15,1.32,3.3,1.83c1.16,0.51,2.37,0.9,3.61,1.16h0.01c1.27,0.26,2.57,0.39,3.86,0.38c1.31,0.01,2.62-0.11,3.91-0.36
		c1.2-0.23,2.37-0.59,3.49-1.06c1.12-0.48,2.19-1.07,3.19-1.76c1.05-0.73,2.03-1.55,2.93-2.46c0.13-0.15,0.25-0.31,0.35-0.49
		c0.11-0.2,0.21-0.41,0.28-0.62c0.08-0.22,0.13-0.44,0.16-0.67c0.04-0.23,0.05-0.47,0.04-0.7c-0.01-0.23-0.04-0.45-0.09-0.67
		c-0.06-0.22-0.13-0.44-0.23-0.65c-0.09-0.2-0.2-0.39-0.33-0.56c-0.13-0.17-0.27-0.33-0.44-0.47l-0.07-0.06l-0.07-0.08
		c-0.32-0.36-0.71-0.65-1.15-0.85c-0.96-0.37-2.01-0.37-2.97,0c-0.44,0.2-0.83,0.49-1.15,0.85l-0.07,0.07l-0.07,0.07
		c-1.03,0.94-2.24,1.66-3.55,2.14c-1.34,0.48-2.76,0.72-4.18,0.71l0,0c-0.77,0.03-1.53-0.03-2.28-0.16
		c-0.77-0.14-1.53-0.38-2.25-0.7c-0.68-0.31-1.33-0.67-1.94-1.09c-0.62-0.42-1.2-0.9-1.74-1.42c-0.55-0.53-1.04-1.11-1.48-1.74
		c-0.44-0.63-0.81-1.3-1.12-2.01c-0.31-0.71-0.55-1.46-0.71-2.22c-0.16-0.77-0.24-1.55-0.24-2.33c0-1.53,0.33-3.05,0.96-4.44
		c0.61-1.36,1.47-2.61,2.52-3.66l0,0c0.53-0.53,1.1-1.01,1.72-1.44c0.62-0.43,1.28-0.81,1.97-1.12c1.44-0.67,3-1.01,4.59-1.01
		c1.42-0.01,2.83,0.24,4.16,0.74c1.32,0.5,2.53,1.25,3.57,2.2l0.1,0.1c0.31,0.34,0.69,0.6,1.12,0.77c0.47,0.18,0.98,0.25,1.48,0.23
		c0.55-0.01,1.1-0.12,1.62-0.31c0.44-0.17,0.85-0.43,1.19-0.76c0.33-0.31,0.6-0.68,0.79-1.09c0.2-0.45,0.31-0.93,0.33-1.41
		c0.03-0.48-0.03-0.96-0.18-1.41C-832.63-7.25-832.85-7.62-833.12-7.95L-833.12-7.95z"/>
</g>
<g transform="translate(929 57.2)">
	<path class="st1" d="M-775.13-22.12c16.28,5.08,25.58,22.47,20.27,38.67c-7.56,23.08-27.03,28.28-42.9,31.57l3.59-11.51
		c-16.14-5.49-24.78-23.03-19.28-39.18C-808.06-18.37-791.09-27.04-775.13-22.12L-775.13-22.12z M-769.38-6.17L-769.38-6.17
		c-3.55-3.65-8.46-5.67-13.55-5.58c-1.27,0-2.54,0.13-3.79,0.39c-1.23,0.27-2.43,0.66-3.58,1.19c-1.16,0.53-2.28,1.15-3.33,1.87
		c-1.04,0.71-2.01,1.51-2.9,2.39c-0.89,0.87-1.69,1.83-2.4,2.86c-0.71,1.04-1.33,2.15-1.84,3.3c-1.03,2.3-1.56,4.78-1.55,7.3
		c0,1.28,0.12,2.55,0.38,3.8c0.26,1.23,0.65,2.44,1.16,3.59c0.51,1.16,1.12,2.26,1.83,3.31c1.41,2.05,3.18,3.82,5.23,5.23
		c1.04,0.71,2.15,1.32,3.3,1.83c1.16,0.51,2.37,0.9,3.6,1.16h0.01c1.27,0.26,2.57,0.39,3.86,0.38c1.31,0.01,2.62-0.11,3.91-0.36
		c1.2-0.23,2.37-0.59,3.49-1.06c1.12-0.48,2.19-1.07,3.19-1.76c1.05-0.73,2.03-1.55,2.93-2.46c0.13-0.15,0.25-0.31,0.35-0.49
		c0.11-0.2,0.21-0.41,0.28-0.62c0.08-0.22,0.13-0.44,0.16-0.67c0.04-0.23,0.05-0.47,0.04-0.7c-0.01-0.23-0.04-0.45-0.09-0.67
		c-0.06-0.22-0.13-0.44-0.23-0.65c-0.09-0.2-0.2-0.39-0.33-0.56c-0.13-0.17-0.27-0.33-0.44-0.47l-0.07-0.06l-0.07-0.08
		c-0.32-0.36-0.71-0.65-1.15-0.85c-0.96-0.37-2.01-0.37-2.97,0c-0.44,0.2-0.83,0.49-1.15,0.85l-0.07,0.07l-0.07,0.07
		c-1.03,0.94-2.24,1.66-3.55,2.14c-1.34,0.48-2.76,0.72-4.18,0.71l0,0c-0.77,0.03-1.53-0.03-2.28-0.16
		c-0.77-0.14-1.53-0.38-2.25-0.7c-0.68-0.31-1.33-0.67-1.94-1.09c-0.62-0.42-1.2-0.9-1.74-1.42c-0.55-0.53-1.04-1.11-1.48-1.74
		c-0.44-0.63-0.81-1.3-1.12-2.01c-0.31-0.71-0.55-1.46-0.71-2.22c-0.16-0.77-0.24-1.55-0.24-2.33c0-1.53,0.33-3.05,0.96-4.44
		c0.61-1.36,1.47-2.61,2.52-3.66l0,0c0.53-0.53,1.1-1.01,1.72-1.44c0.62-0.43,1.28-0.81,1.97-1.12c1.44-0.67,3-1.01,4.59-1.01
		c1.42-0.01,2.83,0.24,4.16,0.74c1.32,0.5,2.53,1.25,3.57,2.2l0.1,0.1c0.31,0.34,0.69,0.6,1.12,0.77c0.47,0.18,0.98,0.25,1.48,0.23
		c0.55-0.01,1.1-0.12,1.62-0.31c0.44-0.17,0.85-0.43,1.19-0.76c0.33-0.31,0.6-0.68,0.79-1.09c0.2-0.45,0.31-0.93,0.33-1.41
		c0.03-0.48-0.03-0.96-0.18-1.41C-768.89-5.46-769.11-5.84-769.38-6.17L-769.38-6.17z"/>
</g>
</svg>
