<?xml version="1.0" encoding="utf-8"?>
<!-- Generator: Adobe Illustrator 23.0.2, SVG Export Plug-In . SVG Version: 6.00 Build 0)  -->
<svg version="1.1" id="Camada_1" xmlns="http://www.w3.org/2000/svg" xmlns:xlink="http://www.w3.org/1999/xlink" x="0px" y="0px"
	 viewBox="0 0 1080 2500" style="enable-background:new 0 0 1080 2500;" xml:space="preserve">
<style type="text/css">
	.st0{fill:#FFFFFF;}
</style>
<g>
	<path class="st0" d="M521.33,1164.34c-9.54,5.98-19.13,11.89-28.61,17.96c-10.69,6.85-21.18,2.75-23.22-9.64
		c-0.88-5.32,1.72-10.15,6.25-13.1c16.61-10.84,33.25-21.65,50.14-32.05c12.23-7.53,24.08-1.65,24.21,13.77
		c0.27,33.99,0.48,68-0.1,101.98c-0.25,14.55-1.79,29.26-8.2,42.74c-5.75,12.08-14.67,21.38-26.72,27.27
		c-11.35,5.55-22.98,10.53-34.42,15.9c-24.11,11.32-45.93,25.81-63.82,45.87c-6.26,7.02-12.96,13.65-21.7,17.87
		c-19.38,9.35-43.37,5.92-57.52-8.72c-8.77-9.08-12.6-20.43-14.5-32.71c-1.67-10.77-0.64-21.55-0.9-32.32
		c-0.24-9.93,2.2-19.6,3.32-29.39c1.27-11.07,3.06-22.09,4.65-33.12c1.91-13.31,3.92-26.6,5.74-39.92
		c1.22-8.95,2.06-17.95,3.28-26.91c3.94-29.08,8.29-58.02,20.18-85.29c5.42-12.44,13.52-22.82,22.11-32.98
		c16.88-19.97,38.02-34.15,61.29-45.67c8.97-4.44,17.69-9.29,27.37-12.03c2.2-0.62,4.45-1.14,6.71-1.48
		c5.63-0.85,11.7,2.25,13.13,6.58c2.78,8.38,0.93,15.39-5.41,18.52c-10.46,5.15-21.26,9.63-31.61,14.99
		c-14.76,7.64-28.92,16.33-41.13,27.76c-19.22,18-30.49,40.57-36.59,65.85c-4.31,17.85-6.53,36.09-9.19,54.25
		c-3.15,21.42-5.17,42.99-8.69,64.37c-2.63,16.03-3.91,32.27-6.29,48.35c-1.39,9.37-2.48,18.74-1.77,28.14
		c0.63,8.42,3.32,16.15,8.99,22.94c7.03,8.43,18.3,6.66,26.05,2.41c2.13-1.17,3.94-2.97,5.75-4.65
		c7.02-6.52,13.06-13.97,20.14-20.51c11-10.16,23.14-18.44,35.88-25.98c15.44-9.14,32.11-15.77,48.36-23.25
		c14.76-6.79,24.99-16.77,25.97-34.54c0.56-10.2,0.86-20.5,1.98-30.62c2.31-20.8-2.38-41.42,0.29-62.14
		C522.25,1164.67,521.79,1164.51,521.33,1164.34z"/>
	<path class="st0" d="M606.19,1124.15c13.7,5.01,24.81,14.44,37.09,21.87c7.42,4.5,14.41,9.71,21.84,14.2
		c5.56,3.35,6.2,12.54,4.25,17.38c-2.51,6.24-9.44,9.24-16.03,7.32c-7.08-2.06-12.42-7.21-18.7-10.69
		c-5.4-2.99-10.24-6.98-15.99-9.5c-0.23,0.6-0.43,0.88-0.42,1.15c0.18,20.44-2.13,40.87-0.9,61.3c0.8,13.27,0.87,26.71,4,39.73
		c2.15,8.95,7.42,15.77,15.66,20.43c15.47,8.74,32.4,14.4,47.92,22.97c17.74,9.79,35.1,20.15,49.07,35.25
		c5.26,5.68,10.85,11.06,16.41,16.45c14.96,14.51,32.67,9.23,38.63-10.5c3.46-11.46,2.06-23.07,0.54-34.75
		c-1.16-8.95-2.17-17.93-3.38-26.88c-1.44-10.73-2.85-21.46-4.34-32.18c-1.17-8.44-2.55-16.85-3.63-25.3
		c-1.58-12.36-3.1-24.73-4.8-37.08c-1.81-13.16-3.71-26.3-6.3-39.31c-4.92-24.74-13.63-47.72-30.67-67.09
		c-11.6-13.19-25.53-23.04-40.57-31.64c-11.84-6.77-24.2-12.43-36.81-17.6c-8.65-3.55-11.73-10.4-9.17-18.62
		c1.99-6.4,7.4-9.88,13.94-8.62c9.55,1.84,18.63,5.2,27.11,9.92c10.32,5.74,21.17,10.54,30.91,17.3c7.28,5.05,14.64,9.97,21.22,16
		c11.21,10.29,21.36,21.48,29.79,34.12c8.28,12.41,12.94,26.5,17.15,40.64c5.71,19.19,8.25,39.05,11.07,58.81
		c3.01,21.11,5.29,42.33,8.16,63.47c2.43,17.86,5.75,35.61,7.77,53.51c1.88,16.76,2.56,33.69-0.87,50.4
		c-4.39,21.37-17.54,37.53-41.27,40.86c-17.13,2.41-31.37-2.83-43.56-14.53c-6.49-6.23-12.84-12.61-19.09-19.08
		c-10.65-11.03-23.54-18.96-36.76-26.34c-8.13-4.54-16.23-9.28-25.17-12.21c-7.91-5.05-16.99-7.62-25.27-11.93
		c-17.95-9.35-27.86-24.34-31.85-43.76c-2.61-12.69-3.06-25.52-3.01-38.43c0.1-29.99,0.01-59.98,0.04-89.97
		C590.22,1131.17,595.43,1123.81,606.19,1124.15z"/>
	<path class="st0" d="M550.18,1050.76c0,5.84-0.23,9.86,0.05,13.84c0.58,8.37-3.39,14.37-9.98,18.63
		c-13.21,8.53-26.71,16.62-39.94,25.13c-4.3,2.76-8.48,5.57-13.41,7.11c-7.13,2.22-12.69,0.48-16.25-5.24
		c-3.01-4.83-1.91-12.92,2.55-17.37c5.17-5.16,11.76-8.36,17.75-12.36c9.54-6.36,19.43-12.19,29.24-18.13c1.52-0.92,2.02-1.98,2-3.6
		c-0.13-12.7,0.79-25.46-2.95-37.91c-4.61-15.31-13.42-27.2-27.67-34.76c-4.36-2.32-9.14-4.17-11.32-9.06
		c-2.21-4.94-1.28-9.83,1.86-13.96c3.26-4.28,7.59-5.61,13.34-5.03c8.27,0.84,14.54,5.3,20.53,9.87
		c14.49,11.05,24.74,25.51,29.89,43.05C549.84,1024.48,550.64,1038.52,550.18,1050.76z"/>
	<path class="st0" d="M618.31,979.35c7.75-6.85,15.01-14.43,24.57-18.84c4.26-1.96,8.77-4.05,13.72-2.95
		c5.91,1.31,10.84,6.37,11.57,11.51c0.84,5.88-2.91,12.31-9.94,15.63c-9.16,4.34-16.87,10.33-22.56,18.67
		c-5.74,8.42-8.34,17.91-9.64,28.03c-1.15,8.97-0.43,17.88-0.88,26.81c-0.12,2.35,0.49,3.73,2.69,5.1
		c14.72,9.19,29.99,17.52,43.98,27.87c5.22,3.86,7.51,13.92,4.25,19.43c-3.1,5.23-12.18,7.83-18.09,4.52
		c-7.56-4.23-14.77-9.11-22.15-13.68c-9.86-6.1-19.74-12.18-29.61-18.26c-1.34-1.46-2.66-2.93-4.02-4.37
		c-3.28-3.46-5.15-7.38-5.07-12.33c0.17-10.79-0.43-21.61,0.16-32.37c1.05-19.39,6.39-37.35,19.77-52.15
		C617.78,981.18,618.27,980.4,618.31,979.35z"/>
	<path class="st0" d="M581.18,1084.11c0,10.2,0,10.2,10.38,10.2c9.62,0,9.62,0,9.62,9.46c0,7.54,0,7.5-7.55,7.55
		c-3.96,0.03-9.24-1.3-11.54,0.71c-2.73,2.38-0.56,7.81-0.9,11.9c-0.04,0.5-0.08,1.01,0.01,1.49c0.85,4.66-0.74,6.21-5.73,6.02
		c-11.26-0.43-11.27-0.13-11.27-11.43c0-8.7,0-8.7-8.88-8.7c-11.12,0-10.82-0.01-11.26-10.95c-0.2-5.07,1.16-6.64,6.2-6.15
		c4.41,0.43,10.44,1.6,12.97-0.67c2.96-2.64,0.81-8.75,0.92-13.34c0.16-6.87,0.04-6.88,6.75-6.88
		C581.18,1073.32,581.18,1073.32,581.18,1084.11z"/>
</g>
</svg>
