<svg xmlns="http://www.w3.org/2000/svg" width="247" height="151.993" viewBox="0 0 247 151.993">
  <g id="Group_20" data-name="Group 20" transform="translate(-855 -57.2)">
    <g id="cartao-de-visita_2" data-name="cartao-de-visita 2" transform="translate(943.201 57.2)">
      <path id="Path_1" data-name="Path 1" d="M47.775,1.669c19.4,6.057,30.488,26.782,24.161,46.1C62.923,75.277,39.719,81.473,20.8,85.4l4.282-13.717A36.8,36.8,0,0,1,47.775,1.668Zm6.848,19.019,0,0a21.987,21.987,0,0,0-16.15-6.646,21.444,21.444,0,0,0-4.518.469,20.91,20.91,0,0,0-4.266,1.416,26.34,26.34,0,0,0-3.975,2.232,25.277,25.277,0,0,0-3.462,2.85,23.41,23.41,0,0,0-2.858,3.406A24.223,24.223,0,0,0,17.2,28.353a21.095,21.095,0,0,0-1.842,8.7,22.021,22.021,0,0,0,.456,4.527A21.3,21.3,0,0,0,17.2,45.851a24.811,24.811,0,0,0,2.185,3.944,23.984,23.984,0,0,0,6.233,6.234,24.851,24.851,0,0,0,3.945,2.185A21.2,21.2,0,0,0,33.857,59.6h.009a22.63,22.63,0,0,0,4.6.456,24.5,24.5,0,0,0,4.665-.426A20.356,20.356,0,0,0,47.3,58.362a21.956,21.956,0,0,0,3.8-2.1,25.179,25.179,0,0,0,3.492-2.927,3.9,3.9,0,0,0,.417-.578,4.181,4.181,0,0,0,.338-.742,4.456,4.456,0,0,0,.2-.8,4.406,4.406,0,0,0,.048-.829,4.158,4.158,0,0,0-.109-.8,4.264,4.264,0,0,0-.274-.773,3.7,3.7,0,0,0-.391-.668,3.619,3.619,0,0,0-.52-.564l-.087-.078-.088-.1a4,4,0,0,0-1.371-1.015,4.927,4.927,0,0,0-3.541,0A3.992,3.992,0,0,0,47.842,47.4l-.078.087-.088.079a12.846,12.846,0,0,1-4.226,2.548,14.426,14.426,0,0,1-4.981.843v0a12.357,12.357,0,0,1-2.722-.195,11.7,11.7,0,0,1-2.678-.835,15.224,15.224,0,0,1-2.321-1.3,15.558,15.558,0,0,1-2.069-1.691,14,14,0,0,1-1.765-2.07,14.172,14.172,0,0,1-1.33-2.391,13.215,13.215,0,0,1-.843-2.647,13.651,13.651,0,0,1-.287-2.778,12.883,12.883,0,0,1,1.139-5.295A14.578,14.578,0,0,1,28.6,27.39l0,0a15.011,15.011,0,0,1,2.048-1.717A15.6,15.6,0,0,1,33,24.338a12.863,12.863,0,0,1,5.47-1.2,13.893,13.893,0,0,1,4.956.878,13.372,13.372,0,0,1,4.251,2.626l.122.114a3.689,3.689,0,0,0,1.336.92,4.4,4.4,0,0,0,1.77.269,5.842,5.842,0,0,0,1.927-.373,4.386,4.386,0,0,0,1.423-.9,4.137,4.137,0,0,0,.942-1.3,4.7,4.7,0,0,0,.395-1.684A4.364,4.364,0,0,0,55.378,22a4.067,4.067,0,0,0-.757-1.313Z" transform="translate(0.003 0.014)" fill="#fa3b64" fill-rule="evenodd"/>
    </g>
    <text id="carine_bitencourt" data-name="carine bitencourt" transform="translate(855 184.293)" fill="#fff" font-size="28" font-family="Montserrat-Regular, Montserrat" letter-spacing="-0.006em"><tspan x="0" y="0">carine </tspan><tspan y="0" font-family="Montserrat-Bold, Montserrat" font-weight="700">bitencourt</tspan></text>
    <text id="STUDIO_DE_MARKETING" data-name="STUDIO DE MARKETING" transform="translate(883.919 205.193)" fill="#465679" font-size="14" font-family="Montserrat-Bold, Montserrat" font-weight="700" letter-spacing="0.06em"><tspan x="0" y="0">STUDIO DE MARKETING</tspan></text>
  </g>
</svg>
