<svg xmlns="http://www.w3.org/2000/svg" width="318.189" height="318.22" viewBox="0 0 318.189 318.22">
  <path id="_002-chat" data-name="002-chat" d="M318.684,152.673A156.23,156.23,0,0,0,159.593.03,156.234,156.234,0,0,0,.5,152.67l0,.131v.131A150.177,150.177,0,0,0,50.42,263.962v38.464a15.6,15.6,0,0,0,15.592,15.8,15.51,15.51,0,0,0,8.23-2.37l30.914-19.313a163.257,163.257,0,0,0,54.121,9.2h.233c1.025.019,2.037.029,3.059.029A156.234,156.234,0,0,0,318.684,153.1l0-.214Zm-90.721,56.862H160.731a9.331,9.331,0,0,1,0-18.663h67.232a9.331,9.331,0,1,1,0,18.663Zm0-41.278H91.222a9.331,9.331,0,0,1,0-18.663h136.74a9.331,9.331,0,1,1,0,18.663Zm0-41.278H91.222a9.331,9.331,0,0,1,0-18.663h136.74a9.331,9.331,0,1,1,0,18.663Zm0,0" transform="translate(-0.499 -0.002)" fill="#fa3b64" opacity="0.172"/>
</svg>
