<svg xmlns="http://www.w3.org/2000/svg" width="68.277" height="68.278" viewBox="0 0 68.277 68.278">
  <path id="_005-hashtag" data-name="005-hashtag" d="M51.275,35.963H45.566a.412.412,0,0,1-.411-.411v-15.9a.412.412,0,0,1,.411-.411h5.709a4.473,4.473,0,0,0,3.269-1.415,4.27,4.27,0,0,0,1.143-3.254,4.363,4.363,0,0,0-4.336-4.027H45.566a.412.412,0,0,1-.411-.411V4.425a4.467,4.467,0,0,0-1.416-3.269A4.266,4.266,0,0,0,40.485.012a4.364,4.364,0,0,0-4.027,4.336V10.13a.412.412,0,0,1-.411.411h-15.9a.412.412,0,0,1-.411-.411V4.425a4.471,4.471,0,0,0-1.415-3.269A4.269,4.269,0,0,0,15.063.012a4.364,4.364,0,0,0-4.026,4.336V10.13a.412.412,0,0,1-.412.411h-5.7a4.471,4.471,0,0,0-3.269,1.415A4.27,4.27,0,0,0,.512,15.211a4.364,4.364,0,0,0,4.336,4.027h5.777a.412.412,0,0,1,.412.411v15.9a.412.412,0,0,1-.412.411h-5.7a4.472,4.472,0,0,0-3.269,1.416A4.269,4.269,0,0,0,.512,40.633a4.364,4.364,0,0,0,4.336,4.026h5.777a.412.412,0,0,1,.412.411v5.7a4.475,4.475,0,0,0,1.415,3.27,4.275,4.275,0,0,0,3.254,1.143,4.365,4.365,0,0,0,4.026-4.337V45.071a.412.412,0,0,1,.411-.411h15.9a.412.412,0,0,1,.411.411v5.7a4.474,4.474,0,0,0,1.416,3.27A4.27,4.27,0,0,0,40.8,55.2c.108,0,.217,0,.327-.012a4.365,4.365,0,0,0,4.027-4.337V45.071a.412.412,0,0,1,.411-.411h5.785a4.363,4.363,0,0,0,4.336-4.026,4.27,4.27,0,0,0-1.143-3.254,4.474,4.474,0,0,0-3.269-1.416Zm-14.817-.411a.412.412,0,0,1-.411.411h-15.9a.412.412,0,0,1-.411-.411v-15.9a.412.412,0,0,1,.411-.411h15.9a.412.412,0,0,1,.411.411Zm0,0" transform="translate(-0.48 15.353) rotate(-16)" fill="#fa3b64"/>
</svg>
