<svg xmlns="http://www.w3.org/2000/svg" width="72" height="64.057" viewBox="0 0 72 64.057">
  <path id="_006-heart" data-name="006-heart" d="M66.289,6.269A19.361,19.361,0,0,0,51.887,0,18.113,18.113,0,0,0,40.574,3.905,23.146,23.146,0,0,0,36,8.681a23.133,23.133,0,0,0-4.574-4.776A18.11,18.11,0,0,0,20.114,0a19.362,19.362,0,0,0-14.4,6.269A22.506,22.506,0,0,0,0,21.638C0,27.727,2.27,33.3,7.142,39.18c4.358,5.259,10.622,10.6,17.876,16.778,2.477,2.111,5.284,4.5,8.2,7.053a4.227,4.227,0,0,0,5.566,0c2.915-2.549,5.724-4.943,8.2-7.055C54.238,49.776,60.5,44.439,64.86,39.179,69.732,33.3,72,27.727,72,21.638A22.5,22.5,0,0,0,66.289,6.269Zm0,0" transform="translate(0)" fill="#fa3b64"/>
</svg>
