<svg xmlns="http://www.w3.org/2000/svg" width="102.485" height="102.495" viewBox="0 0 102.485 102.495">
  <g id="_001-like" data-name="001-like" transform="translate(-0.499 0.001)">
    <path id="Path_12" data-name="Path 12" d="M102.983,49.172A50.322,50.322,0,0,0,51.741.008,50.322,50.322,0,0,0,.5,49.172v.084A48.366,48.366,0,0,0,16.578,85.017V97.406a5.02,5.02,0,0,0,5.022,5.087,4.992,4.992,0,0,0,2.651-.763l9.957-6.22a52.611,52.611,0,0,0,17.433,2.962h.074c.33.006.657.009.985.009a50.322,50.322,0,0,0,50.283-49.173l0-.069ZM59.9,67.887c-1.589,1.354-3.391,2.889-5.28,4.542a4.372,4.372,0,0,1-5.759,0c-1.873-1.637-3.681-3.179-5.278-4.539-9.713-8.277-16.73-14.258-16.73-23.411A16.167,16.167,0,0,1,30.977,33.44a14.127,14.127,0,0,1,10.507-4.578,13.3,13.3,0,0,1,8.31,2.865,15.851,15.851,0,0,1,1.947,1.789,15.913,15.913,0,0,1,1.948-1.789A13.3,13.3,0,0,1,62,28.862,14.127,14.127,0,0,1,72.506,33.44,16.164,16.164,0,0,1,76.63,44.477c0,9.154-7.017,15.133-16.729,23.41Zm0,0" transform="translate(0 0)" fill="#fa3b64"/>
    <path id="Path_13" data-name="Path 13" d="M191.311,174.211a7.324,7.324,0,0,0-4.632,1.609A11.549,11.549,0,0,0,183.941,179a3.363,3.363,0,0,1-5.776,0,11.563,11.563,0,0,0-2.737-3.179,7.326,7.326,0,0,0-4.632-1.609c-4.994,0-8.62,4.039-8.62,9.6,0,6.379,5.5,11.067,14.618,18.835,1.3,1.11,2.746,2.34,4.259,3.653,1.522-1.319,2.961-2.546,4.26-3.653,9.115-7.767,14.617-12.456,14.617-18.834,0-5.564-3.625-9.6-8.62-9.6Zm0,0" transform="translate(-129.311 -139.338)" fill="#fa3b64"/>
  </g>
</svg>
