<svg xmlns="http://www.w3.org/2000/svg" width="82.802" height="63.263" viewBox="0 0 82.802 63.263">
  <path id="_004-telegram" data-name="004-telegram" d="M82.117,1.6A3,3,0,0,0,78.765.684L2.811,28.132a4.258,4.258,0,0,0-.956,7.521l10.857,7.411a3.417,3.417,0,0,0,3.531.2L39.794,30.846,21.439,44.551A3.443,3.443,0,0,0,20.063,47.3v12.7a3.565,3.565,0,0,0,5.531,2.968l8.248-5.471,8.111,5.531a4.275,4.275,0,0,0,6.041-1.276L82.358,5.078a3.008,3.008,0,0,0-.241-3.48Zm0,0" transform="translate(0.001 -0.5)" fill="#fa3b64"/>
</svg>
