<svg xmlns="http://www.w3.org/2000/svg" width="27.2" height="27.2" viewBox="0 0 27.2 27.2"><g transform="translate(0 0)"><path d="M152.125,263.07h-1.742v3.561h1.742q1.5,0,1.5-1.68V264.7a1.737,1.737,0,0,0-.378-1.249A1.5,1.5,0,0,0,152.125,263.07Zm0,0" transform="translate(-142.394 -249.094)" fill="#fff"/><path d="M325.336,254.65a.381.381,0,0,0,.1-.309,1.006,1.006,0,0,0-.393-.821,1.6,1.6,0,0,0-1.9-.007.978.978,0,0,0-.4.813v.4h2.251a.573.573,0,0,0,.347-.079Zm0,0" transform="translate(-305.593 -239.752)" fill="#fff"/><path d="M153.027,186.414a1.408,1.408,0,0,0,.316-.971,1.316,1.316,0,0,0-.331-.948,1.208,1.208,0,0,0-.917-.347h-1.711v2.62h1.727a1.164,1.164,0,0,0,.917-.354Zm0,0" transform="translate(-142.394 -174.366)" fill="#fff"/><path d="M19.837,0H7.363A7.371,7.371,0,0,0,0,7.363V19.837A7.371,7.371,0,0,0,7.363,27.2H19.837A7.371,7.371,0,0,0,27.2,19.837V7.363A7.371,7.371,0,0,0,19.837,0ZM13.23,16.026a3.269,3.269,0,0,1-.832,2.489,3.163,3.163,0,0,1-2.251.779H6.879a1.024,1.024,0,0,1-.632-.185A.533.533,0,0,1,6,18.677V8.658A.525.525,0,0,1,6.263,8.2a1.11,1.11,0,0,1,.617-.17H9.854q3.1,0,3.1,2.713a2.383,2.383,0,0,1-1.31,2.451,2.552,2.552,0,0,1,1.187.871,2.816,2.816,0,0,1,.4,1.642Zm4.409,1.426a1.987,1.987,0,0,0,1.31.409,2.5,2.5,0,0,0,1.156-.293,2.326,2.326,0,0,1,.74-.293.644.644,0,0,1,.54.3,1,1,0,0,1,.216.578q0,.432-.779.855a4,4,0,0,1-1.934.424,4.049,4.049,0,0,1-2.69-.871,2.84,2.84,0,0,1-1.04-2.289v-1.31a2.857,2.857,0,0,1,.987-2.174,3.4,3.4,0,0,1,2.389-.909,3.262,3.262,0,0,1,2.243.828,2.669,2.669,0,0,1,.933,2.083,2.107,2.107,0,0,1-.116.756.751.751,0,0,1-.354.42,1.464,1.464,0,0,1-.439.153,3.59,3.59,0,0,1-.524.031H17.145v.231a1.323,1.323,0,0,0,.493,1.071Zm3.313-6.408H15.965a.8.8,0,1,1,0-1.595h4.987a.8.8,0,1,1,0,1.595Zm0,0" transform="translate(0 0)" fill="#fff"/></g></svg>