<svg xmlns="http://www.w3.org/2000/svg" width="530" height="530.051" fill = "rgb(40,50,60)" viewBox="0 0 530 530.051">
  <path id="_002-chat" data-name="002-chat" d="M530.491,254.3A260.229,260.229,0,0,0,265.5.049,260.236,260.236,0,0,0,.5,254.3l0,.218v.218a250.146,250.146,0,0,0,83.152,184.94v64.069a25.979,25.979,0,0,0,25.97,26.31,25.835,25.835,0,0,0,13.709-3.947l51.492-32.17a271.933,271.933,0,0,0,90.148,15.323h.388c1.707.032,3.393.049,5.1.049a260.236,260.236,0,0,0,260.036-254.3l.008-.356Z" transform="translate(-0.499 -0.002)" fill="#faf8f8"/>
</svg>
