<svg xmlns="http://www.w3.org/2000/svg" width="244.888" height="148.161" viewBox="0 0 244.888 148.161">
  <g id="Group_20" data-name="Group 20" transform="translate(-815.797 -57.2)">
    <g id="cartao-de-visita_2" data-name="cartao-de-visita 2" transform="translate(902.71 57.2)">
      <path id="Path_1" data-name="Path 1" d="M47.775,1.669c19.4,6.057,30.488,26.782,24.161,46.1C62.923,75.277,39.719,81.473,20.8,85.4l4.282-13.717A36.8,36.8,0,0,1,47.775,1.668Zm6.848,19.019,0,0a21.987,21.987,0,0,0-16.15-6.646,21.444,21.444,0,0,0-4.518.469,20.91,20.91,0,0,0-4.266,1.416,26.34,26.34,0,0,0-3.975,2.232,25.277,25.277,0,0,0-3.462,2.85,23.41,23.41,0,0,0-2.858,3.406A24.223,24.223,0,0,0,17.2,28.353a21.095,21.095,0,0,0-1.842,8.7,22.021,22.021,0,0,0,.456,4.527A21.3,21.3,0,0,0,17.2,45.851a24.811,24.811,0,0,0,2.185,3.944,23.984,23.984,0,0,0,6.233,6.234,24.851,24.851,0,0,0,3.945,2.185A21.2,21.2,0,0,0,33.857,59.6h.009a22.63,22.63,0,0,0,4.6.456,24.5,24.5,0,0,0,4.665-.426A20.356,20.356,0,0,0,47.3,58.362a21.956,21.956,0,0,0,3.8-2.1,25.179,25.179,0,0,0,3.492-2.927,3.9,3.9,0,0,0,.417-.578,4.181,4.181,0,0,0,.338-.742,4.456,4.456,0,0,0,.2-.8,4.406,4.406,0,0,0,.048-.829,4.158,4.158,0,0,0-.109-.8,4.264,4.264,0,0,0-.274-.773,3.7,3.7,0,0,0-.391-.668,3.619,3.619,0,0,0-.52-.564l-.087-.078-.088-.1a4,4,0,0,0-1.371-1.015,4.927,4.927,0,0,0-3.541,0A3.992,3.992,0,0,0,47.842,47.4l-.078.087-.088.079a12.846,12.846,0,0,1-4.226,2.548,14.426,14.426,0,0,1-4.981.843v0a12.357,12.357,0,0,1-2.722-.195,11.7,11.7,0,0,1-2.678-.835,15.224,15.224,0,0,1-2.321-1.3,15.558,15.558,0,0,1-2.069-1.691,14,14,0,0,1-1.765-2.07,14.172,14.172,0,0,1-1.33-2.391,13.215,13.215,0,0,1-.843-2.647,13.651,13.651,0,0,1-.287-2.778,12.883,12.883,0,0,1,1.139-5.295A14.578,14.578,0,0,1,28.6,27.39l0,0a15.011,15.011,0,0,1,2.048-1.717A15.6,15.6,0,0,1,33,24.338a12.863,12.863,0,0,1,5.47-1.2,13.893,13.893,0,0,1,4.956.878,13.372,13.372,0,0,1,4.251,2.626l.122.114a3.689,3.689,0,0,0,1.336.92,4.4,4.4,0,0,0,1.77.269,5.842,5.842,0,0,0,1.927-.373,4.386,4.386,0,0,0,1.423-.9,4.137,4.137,0,0,0,.942-1.3,4.7,4.7,0,0,0,.395-1.684A4.364,4.364,0,0,0,55.378,22a4.067,4.067,0,0,0-.757-1.313Z" transform="translate(0.003 0.014)" fill="#fa3b64" fill-rule="evenodd"/>
    </g>
    <path id="Path_41" data-name="Path 41" d="M8.876.14A7.937,7.937,0,0,1,4.97-.812a6.891,6.891,0,0,1-2.7-2.674,7.7,7.7,0,0,1-.98-3.878,7.624,7.624,0,0,1,.98-3.864,6.918,6.918,0,0,1,2.7-2.66,7.937,7.937,0,0,1,3.906-.952,7.563,7.563,0,0,1,3.4.742,5.649,5.649,0,0,1,2.366,2.17L13.16-10.92a4.643,4.643,0,0,0-1.848-1.638A5.484,5.484,0,0,0,8.876-13.1a5.768,5.768,0,0,0-2.87.714,5.017,5.017,0,0,0-1.988,2.03,6.181,6.181,0,0,0-.714,3,6.159,6.159,0,0,0,.714,3.01A5.04,5.04,0,0,0,6.006-2.338a5.768,5.768,0,0,0,2.87.714,5.6,5.6,0,0,0,2.436-.532A4.538,4.538,0,0,0,13.16-3.78l1.484,1.008A5.63,5.63,0,0,1,12.264-.6,7.587,7.587,0,0,1,8.876.14ZM23.52-14.84A6.235,6.235,0,0,1,27.944-13.4a5.572,5.572,0,0,1,1.54,4.27V0h-1.9V-2.3A4.558,4.558,0,0,1,25.606-.5,6.909,6.909,0,0,1,22.512.14a6.058,6.058,0,0,1-3.92-1.176,3.8,3.8,0,0,1-1.456-3.108,3.766,3.766,0,0,1,1.358-3.024A6.646,6.646,0,0,1,22.82-8.316H27.5v-.9a3.774,3.774,0,0,0-1.064-2.9,4.394,4.394,0,0,0-3.108-.994,7.9,7.9,0,0,0-2.688.462,6.774,6.774,0,0,0-2.212,1.274l-.9-1.484a7.945,7.945,0,0,1,2.688-1.47A10.465,10.465,0,0,1,23.52-14.84Zm-.7,13.412A5.239,5.239,0,0,0,25.7-2.2,4.6,4.6,0,0,0,27.5-4.424V-6.832h-4.62q-3.78,0-3.78,2.632a2.408,2.408,0,0,0,.98,2.03A4.461,4.461,0,0,0,22.82-1.428Zm13.8-10.416a4.817,4.817,0,0,1,2.086-2.24,7.088,7.088,0,0,1,3.43-.756v1.932l-.476-.028a4.7,4.7,0,0,0-3.64,1.428,5.689,5.689,0,0,0-1.316,4V0H34.72V-14.728h1.9Zm8.932-2.884h1.988V0H45.556Zm1.008-3.22a1.408,1.408,0,0,1-1.036-.42,1.375,1.375,0,0,1-.42-1.008,1.343,1.343,0,0,1,.42-.98,1.408,1.408,0,0,1,1.036-.42,1.433,1.433,0,0,1,1.036.406,1.3,1.3,0,0,1,.42.966,1.408,1.408,0,0,1-.42,1.036A1.408,1.408,0,0,1,46.564-17.948Zm13.86,3.108a6.018,6.018,0,0,1,4.41,1.61,6.289,6.289,0,0,1,1.638,4.69V0H64.484V-8.344a4.882,4.882,0,0,0-1.148-3.5,4.312,4.312,0,0,0-3.276-1.2,5.032,5.032,0,0,0-3.766,1.414,5.34,5.34,0,0,0-1.386,3.906V0H52.92V-14.728h1.9v2.716A5.531,5.531,0,0,1,57.078-14.1,7.215,7.215,0,0,1,60.424-14.84ZM84.588-6.748H72.268a5.264,5.264,0,0,0,1.764,3.71,5.855,5.855,0,0,0,4.032,1.414,6.353,6.353,0,0,0,2.52-.49,5.5,5.5,0,0,0,1.988-1.442l1.12,1.288a6.307,6.307,0,0,1-2.45,1.792A8.286,8.286,0,0,1,78.008.14,8.177,8.177,0,0,1,73.99-.826,6.965,6.965,0,0,1,71.26-3.5a7.624,7.624,0,0,1-.98-3.864,7.893,7.893,0,0,1,.938-3.864,6.792,6.792,0,0,1,2.576-2.66,7.192,7.192,0,0,1,3.682-.952,7.117,7.117,0,0,1,3.668.952,6.749,6.749,0,0,1,2.548,2.646,7.967,7.967,0,0,1,.924,3.878Zm-7.112-6.384a5.008,5.008,0,0,0-3.57,1.358,5.334,5.334,0,0,0-1.638,3.542H82.712a5.334,5.334,0,0,0-1.638-3.542A5.044,5.044,0,0,0,77.476-13.132Zm26.348-2.156a7.677,7.677,0,0,1,3.822.966,6.936,6.936,0,0,1,2.7,2.716,8.2,8.2,0,0,1,.98,4.074,8.2,8.2,0,0,1-.98,4.074,6.936,6.936,0,0,1-2.7,2.716,7.677,7.677,0,0,1-3.822.966,5.793,5.793,0,0,1-4.732-1.96V0H94.92V-20.776h4.368v7.308A5.818,5.818,0,0,1,103.824-15.288ZM103.068-3.36a3.638,3.638,0,0,0,2.758-1.134A4.227,4.227,0,0,0,106.9-7.532a4.227,4.227,0,0,0-1.078-3.038,3.638,3.638,0,0,0-2.758-1.134,3.638,3.638,0,0,0-2.758,1.134,4.227,4.227,0,0,0-1.078,3.038,4.227,4.227,0,0,0,1.078,3.038A3.638,3.638,0,0,0,103.068-3.36Zm11-11.7h4.368V0h-4.368Zm2.184-2.1a2.77,2.77,0,0,1-1.96-.7,2.27,2.27,0,0,1-.756-1.736,2.27,2.27,0,0,1,.756-1.736,2.77,2.77,0,0,1,1.96-.7,2.84,2.84,0,0,1,1.96.672,2.155,2.155,0,0,1,.756,1.68,2.378,2.378,0,0,1-.756,1.806A2.738,2.738,0,0,1,116.256-17.164ZM132.048-.728a4.49,4.49,0,0,1-1.582.714,8,8,0,0,1-1.974.238,5.865,5.865,0,0,1-4.158-1.372,5.25,5.25,0,0,1-1.47-4.032v-6.188H120.54v-3.36h2.324V-18.4h4.368v3.668h3.752v3.36h-3.752v6.132a2.056,2.056,0,0,0,.49,1.47,1.816,1.816,0,0,0,1.386.518,2.807,2.807,0,0,0,1.764-.56Zm16.576-6.748q0,.084-.084,1.176h-11.4A3.549,3.549,0,0,0,138.6-4.088a4.823,4.823,0,0,0,2.856.812,5.783,5.783,0,0,0,2.086-.35,5.052,5.052,0,0,0,1.694-1.106l2.324,2.52A7.81,7.81,0,0,1,141.344.224a9.833,9.833,0,0,1-4.508-.994,7.287,7.287,0,0,1-3.024-2.758,7.6,7.6,0,0,1-1.064-4,7.7,7.7,0,0,1,1.05-3.99,7.356,7.356,0,0,1,2.884-2.772,8.468,8.468,0,0,1,4.1-.994,8.4,8.4,0,0,1,4,.952,6.949,6.949,0,0,1,2.814,2.73A8.141,8.141,0,0,1,148.624-7.476Zm-7.812-4.508a3.762,3.762,0,0,0-2.492.84,3.576,3.576,0,0,0-1.232,2.3h7.42a3.612,3.612,0,0,0-1.232-2.282A3.682,3.682,0,0,0,140.812-11.984Zm19.712-3.3a6.2,6.2,0,0,1,4.522,1.68,6.662,6.662,0,0,1,1.722,4.984V0H162.4V-7.952a3.927,3.927,0,0,0-.784-2.674,2.875,2.875,0,0,0-2.268-.882,3.476,3.476,0,0,0-2.632,1.022,4.232,4.232,0,0,0-.98,3.038V0h-4.368V-15.064h4.172V-13.3a5.792,5.792,0,0,1,2.156-1.47A7.512,7.512,0,0,1,160.524-15.288ZM178,.224A9.262,9.262,0,0,1,173.67-.77a7.443,7.443,0,0,1-3-2.758,7.524,7.524,0,0,1-1.078-4,7.524,7.524,0,0,1,1.078-4,7.443,7.443,0,0,1,3-2.758A9.262,9.262,0,0,1,178-15.288a8.382,8.382,0,0,1,4.158.994,5.9,5.9,0,0,1,2.59,2.842l-3.388,1.82a3.7,3.7,0,0,0-3.388-2.072,3.833,3.833,0,0,0-2.828,1.12,4.124,4.124,0,0,0-1.12,3.052,4.124,4.124,0,0,0,1.12,3.052,3.833,3.833,0,0,0,2.828,1.12,3.665,3.665,0,0,0,3.388-2.072l3.388,1.848a6.014,6.014,0,0,1-2.59,2.8A8.288,8.288,0,0,1,178,.224Zm16.072,0A9.033,9.033,0,0,1,189.8-.77a7.389,7.389,0,0,1-2.954-2.758,7.6,7.6,0,0,1-1.064-4,7.6,7.6,0,0,1,1.064-4,7.389,7.389,0,0,1,2.954-2.758,9.033,9.033,0,0,1,4.27-.994,8.95,8.95,0,0,1,4.256.994,7.412,7.412,0,0,1,2.94,2.758,7.6,7.6,0,0,1,1.064,4,7.6,7.6,0,0,1-1.064,4,7.412,7.412,0,0,1-2.94,2.758A8.95,8.95,0,0,1,194.068.224Zm0-3.584a3.638,3.638,0,0,0,2.758-1.134A4.227,4.227,0,0,0,197.9-7.532a4.227,4.227,0,0,0-1.078-3.038,3.638,3.638,0,0,0-2.758-1.134A3.683,3.683,0,0,0,191.3-10.57,4.2,4.2,0,0,0,190.2-7.532,4.2,4.2,0,0,0,191.3-4.494,3.683,3.683,0,0,0,194.068-3.36Zm26.18-11.7V0H216.1V-1.792a5.793,5.793,0,0,1-2.072,1.5,6.518,6.518,0,0,1-2.6.518,6.416,6.416,0,0,1-4.7-1.708,6.809,6.809,0,0,1-1.736-5.068v-8.512h4.368V-7.2q0,3.64,3.052,3.64a3.281,3.281,0,0,0,2.52-1.022,4.312,4.312,0,0,0,.952-3.038v-7.448Zm8.064,1.988a4.857,4.857,0,0,1,2.114-1.652,7.846,7.846,0,0,1,3.066-.56v4.032q-.728-.056-.98-.056a4,4,0,0,0-2.94,1.05,4.244,4.244,0,0,0-1.064,3.15V0H224.14V-15.064h4.172ZM246.176-.728a4.49,4.49,0,0,1-1.582.714,8,8,0,0,1-1.974.238,5.864,5.864,0,0,1-4.158-1.372,5.25,5.25,0,0,1-1.47-4.032v-6.188h-2.324v-3.36h2.324V-18.4h4.368v3.668h3.752v3.36H241.36v6.132a2.056,2.056,0,0,0,.49,1.47,1.816,1.816,0,0,0,1.386.518A2.807,2.807,0,0,0,245-3.808Z" transform="translate(814.509 184.293)" fill="#fff"/>
    <path id="Path_42" data-name="Path 42" d="M4.382.168A8.018,8.018,0,0,1,2.135-.147,5.27,5.27,0,0,1,.392-.966l.77-1.708a5.225,5.225,0,0,0,1.5.742,5.627,5.627,0,0,0,1.736.28,2.773,2.773,0,0,0,1.428-.287A.867.867,0,0,0,6.286-2.7a.729.729,0,0,0-.273-.581,2.07,2.07,0,0,0-.7-.371q-.427-.14-1.155-.308a15.966,15.966,0,0,1-1.834-.532A2.98,2.98,0,0,1,1.1-5.348,2.306,2.306,0,0,1,.588-6.916,2.728,2.728,0,0,1,1.05-8.463a3.108,3.108,0,0,1,1.393-1.1,5.684,5.684,0,0,1,2.275-.406,7.533,7.533,0,0,1,1.834.224A5.418,5.418,0,0,1,8.12-9.1l-.7,1.722A5.464,5.464,0,0,0,4.7-8.148,2.547,2.547,0,0,0,3.3-7.84a.94.94,0,0,0-.455.812.794.794,0,0,0,.525.749,8.243,8.243,0,0,0,1.6.483A15.966,15.966,0,0,1,6.8-5.264a3.037,3.037,0,0,1,1.225.84A2.252,2.252,0,0,1,8.54-2.87a2.676,2.676,0,0,1-.469,1.533,3.151,3.151,0,0,1-1.407,1.1A5.736,5.736,0,0,1,4.382.168Zm8.442-8.12H9.688V-9.8h8.54v1.848H15.092V0H12.824ZM24.472.168A4.435,4.435,0,0,1,21.2-.994a4.473,4.473,0,0,1-1.169-3.318V-9.8H22.3v5.4q0,2.632,2.184,2.632A2.047,2.047,0,0,0,26.11-2.4,2.969,2.969,0,0,0,26.67-4.4V-9.8h2.24v5.488A4.473,4.473,0,0,1,27.741-.994,4.435,4.435,0,0,1,24.472.168ZM31.99-9.8h4.452a6.257,6.257,0,0,1,2.821.609,4.56,4.56,0,0,1,1.9,1.715A4.824,4.824,0,0,1,41.846-4.9a4.824,4.824,0,0,1-.679,2.576,4.56,4.56,0,0,1-1.9,1.715A6.257,6.257,0,0,1,36.442,0H31.99Zm4.34,7.938a3.293,3.293,0,0,0,2.345-.819A2.893,2.893,0,0,0,39.55-4.9a2.893,2.893,0,0,0-.875-2.219,3.293,3.293,0,0,0-2.345-.819H34.258v6.076ZM44.394-9.8h2.268V0H44.394ZM54.572.168A5.72,5.72,0,0,1,51.821-.49,4.884,4.884,0,0,1,49.9-2.3a4.949,4.949,0,0,1-.693-2.6A4.949,4.949,0,0,1,49.9-7.5,4.884,4.884,0,0,1,51.821-9.31a5.72,5.72,0,0,1,2.751-.658,5.679,5.679,0,0,1,2.744.658A4.947,4.947,0,0,1,59.234-7.5a4.912,4.912,0,0,1,.7,2.6,4.912,4.912,0,0,1-.7,2.6A4.947,4.947,0,0,1,57.316-.49,5.679,5.679,0,0,1,54.572.168Zm0-1.932a3.11,3.11,0,0,0,1.568-.4,2.863,2.863,0,0,0,1.1-1.113,3.272,3.272,0,0,0,.4-1.624,3.272,3.272,0,0,0-.4-1.624,2.863,2.863,0,0,0-1.1-1.113,3.11,3.11,0,0,0-1.568-.4,3.11,3.11,0,0,0-1.568.4,2.863,2.863,0,0,0-1.1,1.113,3.272,3.272,0,0,0-.4,1.624,3.272,3.272,0,0,0,.4,1.624A2.863,2.863,0,0,0,53-2.163,3.11,3.11,0,0,0,54.572-1.764ZM67.284-9.8h4.452a6.257,6.257,0,0,1,2.821.609,4.56,4.56,0,0,1,1.9,1.715A4.824,4.824,0,0,1,77.14-4.9a4.824,4.824,0,0,1-.679,2.576,4.56,4.56,0,0,1-1.9,1.715A6.257,6.257,0,0,1,71.736,0H67.284Zm4.34,7.938a3.293,3.293,0,0,0,2.345-.819A2.893,2.893,0,0,0,74.844-4.9a2.893,2.893,0,0,0-.875-2.219,3.293,3.293,0,0,0-2.345-.819H69.552v6.076Zm15.652.042V0H79.688V-9.8h7.406v1.82H81.942v2.128h4.55v1.764h-4.55V-1.82ZM103.642,0l-.014-5.88-2.884,4.844H99.722l-2.87-4.718V0H94.724V-9.8H96.6l3.668,6.09L103.88-9.8h1.862L105.77,0Zm11.746-2.1h-4.55L109.97,0h-2.324l4.368-9.8h2.24L118.636,0h-2.38Zm-.714-1.722L113.12-7.574l-1.554,3.752ZM126.742,0l-1.89-2.73h-2.086V0H120.5V-9.8h4.242A5.444,5.444,0,0,1,127-9.366a3.359,3.359,0,0,1,1.477,1.232A3.394,3.394,0,0,1,129-6.244a3.326,3.326,0,0,1-.525,1.883A3.327,3.327,0,0,1,126.98-3.15l2.2,3.15ZM126.7-6.244a1.552,1.552,0,0,0-.532-1.267,2.382,2.382,0,0,0-1.554-.441h-1.848v3.416h1.848a2.356,2.356,0,0,0,1.554-.448A1.557,1.557,0,0,0,126.7-6.244Zm8.5,2.394-1.316,1.372V0h-2.254V-9.8h2.254v4.578l4.34-4.578h2.52l-4.06,4.368L140.98,0h-2.646Zm15.218,2.03V0h-7.588V-9.8h7.406v1.82h-5.152v2.128h4.55v1.764h-4.55V-1.82Zm4.676-6.132h-3.136V-9.8h8.54v1.848H157.36V0h-2.268ZM162.554-9.8h2.268V0h-2.268Zm14.42,0V0h-1.862l-4.886-5.95V0h-2.24V-9.8h1.876l4.872,5.95V-9.8Zm9.786,4.746h2.072v3.976a5.92,5.92,0,0,1-1.848.924,7.175,7.175,0,0,1-2.114.322,5.729,5.729,0,0,1-2.744-.651,4.846,4.846,0,0,1-1.911-1.806,4.976,4.976,0,0,1-.693-2.611,4.976,4.976,0,0,1,.693-2.611,4.823,4.823,0,0,1,1.925-1.806,5.841,5.841,0,0,1,2.772-.651,6.066,6.066,0,0,1,2.338.434,4.633,4.633,0,0,1,1.764,1.26L187.558-6.93a3.368,3.368,0,0,0-2.534-1.106,3.459,3.459,0,0,0-1.666.392,2.812,2.812,0,0,0-1.134,1.106,3.255,3.255,0,0,0-.406,1.638,3.227,3.227,0,0,0,.406,1.624,2.872,2.872,0,0,0,1.127,1.113,3.34,3.34,0,0,0,1.645.4,3.676,3.676,0,0,0,1.764-.42Z" transform="translate(843.428 205.193)" fill="#465679"/>
  </g>
</svg>
