<svg xmlns="http://www.w3.org/2000/svg" width="218" height="131.259" viewBox="0 0 218 131.259"><g transform="translate(-851 -57.2)"><g transform="translate(929 57.2)"><path d="M40.083,1.4C56.36,6.48,65.662,23.867,60.354,40.072c-7.562,23.083-27.03,28.281-42.9,31.573l3.593-11.509A30.875,30.875,0,0,1,40.082,1.4Zm5.745,15.956,0,0a18.447,18.447,0,0,0-13.55-5.576,17.991,17.991,0,0,0-3.791.394,17.544,17.544,0,0,0-3.579,1.188,22.1,22.1,0,0,0-3.335,1.873,21.207,21.207,0,0,0-2.9,2.391,19.641,19.641,0,0,0-2.4,2.857,20.323,20.323,0,0,0-1.837,3.3,17.7,17.7,0,0,0-1.546,7.3,18.475,18.475,0,0,0,.383,3.8,17.866,17.866,0,0,0,1.163,3.586,20.817,20.817,0,0,0,1.833,3.309,20.123,20.123,0,0,0,5.23,5.23A20.85,20.85,0,0,0,24.8,48.839,17.788,17.788,0,0,0,28.405,50h.007a18.987,18.987,0,0,0,3.863.383,20.556,20.556,0,0,0,3.914-.358,17.079,17.079,0,0,0,3.492-1.064A18.421,18.421,0,0,0,42.874,47.2a21.124,21.124,0,0,0,2.93-2.456,3.27,3.27,0,0,0,.35-.485,3.507,3.507,0,0,0,.284-.622,3.738,3.738,0,0,0,.164-.674,3.7,3.7,0,0,0,.04-.7,3.489,3.489,0,0,0-.091-.669,3.577,3.577,0,0,0-.23-.648,3.1,3.1,0,0,0-.328-.56,3.036,3.036,0,0,0-.437-.473l-.073-.065-.073-.081a3.354,3.354,0,0,0-1.15-.852,4.134,4.134,0,0,0-2.971,0,3.349,3.349,0,0,0-1.15.852l-.066.073L40,39.909a10.778,10.778,0,0,1-3.546,2.138,12.1,12.1,0,0,1-4.179.707v0a10.367,10.367,0,0,1-2.284-.164,9.813,9.813,0,0,1-2.247-.7A12.773,12.773,0,0,1,25.8,40.8a13.053,13.053,0,0,1-1.736-1.419,11.748,11.748,0,0,1-1.481-1.736,11.89,11.89,0,0,1-1.116-2.006,11.088,11.088,0,0,1-.707-2.221,11.454,11.454,0,0,1-.241-2.331,10.809,10.809,0,0,1,.956-4.442,12.231,12.231,0,0,1,2.524-3.662l0,0a12.594,12.594,0,0,1,1.718-1.441,13.086,13.086,0,0,1,1.969-1.124,10.792,10.792,0,0,1,4.589-1.006,11.656,11.656,0,0,1,4.158.737A11.219,11.219,0,0,1,40,22.351l.1.1a3.1,3.1,0,0,0,1.121.772,3.689,3.689,0,0,0,1.485.226,4.9,4.9,0,0,0,1.617-.313,3.68,3.68,0,0,0,1.194-.757,3.471,3.471,0,0,0,.79-1.092,3.943,3.943,0,0,0,.331-1.413,3.661,3.661,0,0,0-.178-1.412,3.412,3.412,0,0,0-.635-1.1Z" transform="translate(0.003 0.014)" fill="#fa3b64" fill-rule="evenodd"/></g><text transform="translate(855 164.178)" fill="#fff" font-size="24" font-family="Montserrat-Regular, Montserrat" letter-spacing="-0.006em"><tspan x="0" y="0">carine </tspan><tspan y="0" font-family="Montserrat-Bold, Montserrat" font-weight="700">bitencourt</tspan></text><text transform="translate(851 185.459)" fill="#465679" font-size="11" font-family="Montserrat-Bold, Montserrat" font-weight="700" letter-spacing="0.06em"><tspan x="0" y="0">GRAPHIC DESIGN • DESIGN UI / UX</tspan></text></g></svg>