<svg xmlns="http://www.w3.org/2000/svg" width="15.499" height="27.307" viewBox="0 0 15.499 27.307"><path d="M11.532,6.759c.037-.042.212-.18.9-.18h2.245A1.326,1.326,0,0,0,16,5.254V1.33A1.326,1.326,0,0,0,14.676.005L11.341,0a6.863,6.863,0,0,0-5.06,1.964A7.206,7.206,0,0,0,4.376,7.126V9.243H1.824A1.326,1.326,0,0,0,.5,10.567v4.226a1.326,1.326,0,0,0,1.325,1.325H4.376v9.864A1.326,1.326,0,0,0,5.7,27.306h4.373A1.326,1.326,0,0,0,11.4,25.982V16.118h3.119a1.326,1.326,0,0,0,1.324-1.324l0-4.226a1.329,1.329,0,0,0-.681-1.159,1.346,1.346,0,0,0-.655-.166H11.4V7.571c0-.545.073-.742.135-.812Zm0,0" transform="translate(-0.5 0)" fill="#fff"/></svg>