<svg xmlns="http://www.w3.org/2000/svg" width="130.194" height="125.484" viewBox="0 0 130.194 125.484"><path d="M130.691,60.2a60.217,60.217,0,0,0-19.679-43.074A64.863,64.863,0,0,0,65.6.01,64.843,64.843,0,0,0,20.18,17.127,60.217,60.217,0,0,0,.5,60.2v.1a58.3,58.3,0,0,0,20.426,43.782v15.168a6.276,6.276,0,0,0,5.071,6.1,6.661,6.661,0,0,0,1.308.13,6.525,6.525,0,0,0,3.369-.934l12.649-7.615a69.1,69.1,0,0,0,22.146,3.627h.094c.418.008.833.011,1.251.011a64.793,64.793,0,0,0,44.2-17.128A60.217,60.217,0,0,0,130.691,60.37l0-.084ZM35.011,47.939A3.751,3.751,0,0,1,31.193,51.6h-.019a3.75,3.75,0,0,1-3.8-3.7,14.588,14.588,0,0,1,4.6-10.548,15.709,15.709,0,0,1,10.911-4.325h.079A15.7,15.7,0,0,1,53.91,37.461,14.578,14.578,0,0,1,58.4,48.053a3.751,3.751,0,0,1-3.818,3.662h-.02a3.75,3.75,0,0,1-3.8-3.7,7.4,7.4,0,0,0-2.278-5.378,7.975,7.975,0,0,0-5.557-2.25,7.75,7.75,0,0,0-7.915,7.551ZM84.188,85a26.679,26.679,0,0,1-18.523,7.343h-.136a26.653,26.653,0,0,1-18.581-7.523,24.749,24.749,0,0,1-7.618-17.982,3.751,3.751,0,0,1,3.818-3.661h.02a3.749,3.749,0,0,1,3.8,3.7,17.565,17.565,0,0,0,5.409,12.766,18.924,18.924,0,0,0,13.192,5.342h.1a18.933,18.933,0,0,0,13.15-5.213,17.586,17.586,0,0,0,5.543-12.714,3.751,3.751,0,0,1,3.818-3.662h.019a3.75,3.75,0,0,1,3.8,3.7A24.763,24.763,0,0,1,84.188,85Zm15.965-33.063h-.019a3.749,3.749,0,0,1-3.8-3.7,7.4,7.4,0,0,0-2.279-5.378,7.966,7.966,0,0,0-5.556-2.25h-.041a7.746,7.746,0,0,0-7.875,7.551,3.752,3.752,0,0,1-3.818,3.661h-.02a3.748,3.748,0,0,1-3.8-3.7c.043-8.218,6.993-14.875,15.511-14.875h.079a15.706,15.706,0,0,1,10.945,4.432,14.583,14.583,0,0,1,4.488,10.593,3.752,3.752,0,0,1-3.819,3.661Zm0,0" transform="translate(-0.5 0.001)" fill="#fa3b64"/></svg>