<svg xmlns="http://www.w3.org/2000/svg" width="27" height="27" viewBox="0 0 27 27"><g transform="translate(0.001 0)"><path d="M19.69,0H7.308A7.317,7.317,0,0,0,0,7.309V19.692A7.317,7.317,0,0,0,7.308,27H19.691A7.317,7.317,0,0,0,27,19.692V7.309A7.317,7.317,0,0,0,19.69,0ZM13.5,20.883A7.383,7.383,0,1,1,20.882,13.5,7.391,7.391,0,0,1,13.5,20.883ZM21.058,7.858A2.182,2.182,0,1,1,23.24,5.677,2.184,2.184,0,0,1,21.058,7.858Zm0,0" fill="#fff"/><path d="M151.82,146.02a5.8,5.8,0,1,0,5.8,5.8A5.806,5.806,0,0,0,151.82,146.02Zm0,0" transform="translate(-138.321 -138.32)" fill="#fff"/><path d="M388.591,96.3a.6.6,0,1,0,.6.6A.6.6,0,0,0,388.591,96.3Zm0,0" transform="translate(-367.533 -91.222)" fill="#fff"/></g></svg>