<svg xmlns="http://www.w3.org/2000/svg" width="24.053" height="27" viewBox="0 0 24.053 27"><path d="M170.691,153.64a5.9,5.9,0,0,0-3.893-1.368,5.969,5.969,0,0,0-2.529.615v-.374a.885.885,0,0,0-.884-.884h-4.634a.885.885,0,0,0-.884.884v17.236a.885.885,0,0,0,.884.884h4.726a.792.792,0,0,0,.792-.792V159.53a1.617,1.617,0,0,1,3.233,0v10.311a.792.792,0,0,0,.792.792H172.8a.792.792,0,0,0,.792-.792v-10a8.061,8.061,0,0,0-2.9-6.2Zm0,0" transform="translate(-149.542 -143.633)" fill="#fff"/><path d="M5.977,151.625H1.425a.926.926,0,0,0-.925.925V169.7a.926.926,0,0,0,.925.925H5.977A.926.926,0,0,0,6.9,169.7V152.55A.926.926,0,0,0,5.977,151.625Zm0,0" transform="translate(-0.473 -143.629)" fill="#fff"/><path d="M3.228,0A3.227,3.227,0,1,0,6.455,3.227,3.231,3.231,0,0,0,3.228,0Zm0,0" fill="#fff"/></svg>