<svg xmlns="http://www.w3.org/2000/svg" width="122.767" height="125.298" viewBox="0 0 122.767 125.298">
  <g id="love" transform="translate(-5.171)">
    <g id="Group_15" data-name="Group 15" transform="translate(5.171)">
      <g id="Group_14" data-name="Group 14" transform="translate(0)">
        <path id="Path_37" data-name="Path 37" d="M103.707,0H29.4A24.039,24.039,0,0,0,15,4.746a1.842,1.842,0,1,0,2.192,2.961A20.379,20.379,0,0,1,29.4,3.684h74.3a20.57,20.57,0,0,1,20.547,20.547V72.966a20.57,20.57,0,0,1-20.547,20.547H72.3a2.769,2.769,0,0,0-2.011.869L45.067,121.2a1.3,1.3,0,0,1-2.24-.888V96.274a2.764,2.764,0,0,0-2.76-2.76H29.4A20.57,20.57,0,0,1,8.855,72.967V24.231a20.432,20.432,0,0,1,3.588-11.6A1.842,1.842,0,1,0,9.4,10.544,24.1,24.1,0,0,0,5.171,24.231V72.966A24.259,24.259,0,0,0,29.4,97.2h9.74v23.117a4.954,4.954,0,0,0,3.145,4.63,5.006,5.006,0,0,0,1.846.355,4.956,4.956,0,0,0,3.617-1.572L72.7,97.2h31.007a24.259,24.259,0,0,0,24.231-24.231V24.231A24.258,24.258,0,0,0,103.707,0Z" transform="translate(-5.171)" fill="#fa3b64"/>
      </g>
    </g>
    <g id="Group_17" data-name="Group 17" transform="translate(35.301 24.801)">
      <g id="Group_16" data-name="Group 16" transform="translate(0)">
        <path id="Path_38" data-name="Path 38" d="M186,106.137a16.417,16.417,0,0,0-23.19,0l-3.211,3.211a.114.114,0,0,1-.084.035.111.111,0,0,1-.084-.035l-3.16-3.159a16.4,16.4,0,0,0-23.19,23.19l23.747,23.747a3.8,3.8,0,0,0,5.378,0l13.05-13.052a1.842,1.842,0,0,0-2.605-2.6L159.6,150.52a.114.114,0,0,1-.084.035.111.111,0,0,1-.084-.035l-23.747-23.747a12.714,12.714,0,0,1,17.98-17.98l3.159,3.159a3.8,3.8,0,0,0,5.378,0l3.211-3.211a12.714,12.714,0,0,1,17.98,17.98l-5.5,5.5a1.842,1.842,0,1,0,2.605,2.6l5.5-5.5A16.417,16.417,0,0,0,186,106.137Z" transform="translate(-128.288 -101.342)" fill="#fa3b64"/>
      </g>
    </g>
  </g>
</svg>
