<svg xmlns="http://www.w3.org/2000/svg" xmlns:xlink="http://www.w3.org/1999/xlink" width="75.999" height="75.999" viewBox="0 0 75.999 75.999"><defs><filter id="a" x="0" y="0" width="75.999" height="75.999" filterUnits="userSpaceOnUse"><feOffset dy="1" input="SourceAlpha"/><feGaussianBlur stdDeviation="1" result="b"/><feFlood flood-opacity="0.161"/><feComposite operator="in" in2="b"/><feComposite in="SourceGraphic"/></filter></defs><g transform="matrix(1, 0, 0, 1, 0, 0)" filter="url(#a)"><path d="M23,102A34.989,34.989,0,1,1,55.249,53.376,34.989,34.989,0,0,1,23,102ZM8.6,78a3.6,3.6,0,1,0,0,7.2H37.4a3.6,3.6,0,1,0,0-7.2Zm0-15a3.6,3.6,0,1,0,0,7.2H37.4a3.6,3.6,0,1,0,0-7.2Zm0-15a3.6,3.6,0,1,0,0,7.2H37.4a3.6,3.6,0,1,0,0-7.2Z" transform="translate(15 -30)" fill="#fff"/></g></svg>