<svg xmlns="http://www.w3.org/2000/svg" width="27" height="27" viewBox="0 0 27 27"><g transform="translate(0)"><path d="M165.9,152.737a1.208,1.208,0,0,1-1.407.224,11.171,11.171,0,0,1-4.907-4.907,1.208,1.208,0,0,1,.224-1.407l.825-.825-1.721-1.721-1.393,1.393c-.232.232-.314.946.221,2.194a15.744,15.744,0,0,0,7.116,7.116c1.248.535,1.962.453,2.194.221l1.393-1.393-1.72-1.721Zm0,0" transform="translate(-149.04 -136.502)" fill="#fff"/><path d="M23.165,3.835A13.007,13.007,0,0,0,13.907,0h0A13.1,13.1,0,0,0,2.27,19.1l-2.2,6.287A1.214,1.214,0,0,0,1.21,27a1.223,1.223,0,0,0,.4-.069L7.9,24.73a13.094,13.094,0,0,0,15.263-20.9ZM20.548,18.223l-1.42,1.42a2.354,2.354,0,0,1-1.727.641,5.733,5.733,0,0,1-2.211-.527,15.626,15.626,0,0,1-4.638-3.31,15.626,15.626,0,0,1-3.31-4.638c-.74-1.726-.7-3.125.114-3.938l1.42-1.42a1.547,1.547,0,0,1,2.185,0l1.775,1.775a1.547,1.547,0,0,1,0,2.185l-.659.659a9.59,9.59,0,0,0,3.851,3.851l.659-.659a1.546,1.546,0,0,1,2.185,0l1.775,1.775a1.545,1.545,0,0,1,0,2.185Zm0,0" transform="translate(0 0)" fill="#fff"/></g></svg>